<svg width="140" height="220" viewBox="0 0 140 220" fill="none" xmlns="http://www.w3.org/2000/svg">
<path d="M92.5964 146.055C88.437 140.054 76.0458 143.704 70.37 146.279C63.7346 148.314 66.2113 147.39 60.5034 145.105C54.7954 142.82 53.7664 143.73 47.9845 145.91C42.2027 148.091 33.6834 147.192 31.1364 137.712C28.5893 128.232 28.9389 122.423 33.1716 116.847C37.4042 111.271 43.9819 112.053 46.4635 99.9595C48.945 87.8658 49.8148 86.3633 56.4665 82.6807C63.1181 78.9981 76.8252 77.8754 82.7038 90.2752C88.5823 102.675 92.3914 107.372 103.574 115.815C114.757 124.257 112.668 133.071 110.419 141.292C108.171 149.513 97.7955 153.556 92.5964 146.055Z" fill="#4B4B4B"/>
<path d="M138.654 68.5479C141.804 78.3748 138.695 91.6099 136.747 96.999C131.761 102.142 129.225 102.184 123.443 104.364C117.662 106.544 105.057 102.292 105.481 92.0183C105.904 81.7446 110.964 72.1371 112.141 62.2971C113.318 52.4571 123.852 49.007 126.547 49.5569C132.006 50.6711 134.717 56.2643 138.654 68.5479Z" fill="#4B4B4B"/>
<path d="M87.427 3.49283C96.2349 9.98237 95.0879 15.4164 97.635 24.8963C99.9384 37.6165 92.7458 44.6188 86.9327 53.7925C81.1197 62.9663 68.1119 52.4716 66.1589 42.8329C64.206 33.1943 67.4721 14.5406 69.7205 6.31934C71.9689 -1.90189 80.9563 -1.27476 87.427 3.49283Z" fill="#4B4B4B"/>
<path d="M27.8888 11.7825C35.2823 -0.98884 44.4071 9.27346 48.2162 13.9709C52.0254 18.6683 51.358 26.8715 48.2162 34.3022C45.0744 41.7328 49.5667 49.8069 46.565 57.5944C43.5632 65.3819 31.9454 57.6909 26.8628 48.2535C21.7802 38.8161 20.4952 24.5537 27.8888 11.7825Z" fill="#4B4B4B"/>
<path d="M2.35682 63.6925C5.04018 54.7201 16.0639 62.5698 22.1755 71.0972C28.9239 81.9945 27.5879 91.242 24.1086 97.252C20.6293 103.262 13.5001 105.167 5.60612 97.1161C-2.28784 89.065 -0.326546 72.665 2.35682 63.6925Z" fill="#4B4B4B"/>
<path d="M18.9548 208.32C19.6482 208.32 20.2215 208.547 20.6748 209C21.1548 209.427 21.3948 209.987 21.3948 210.68C21.3948 211.347 21.1548 211.907 20.6748 212.36C20.2215 212.787 19.6482 213 18.9548 213H5.95485C5.26151 213 4.67485 212.773 4.19485 212.32C3.74151 211.84 3.51485 211.253 3.51485 210.56V187.44C3.51485 186.747 3.75485 186.173 4.23485 185.72C4.71485 185.24 5.32818 185 6.07485 185C6.74151 185 7.31485 185.24 7.79485 185.72C8.27485 186.173 8.51485 186.747 8.51485 187.44V208.32H18.9548ZM54.9452 199C54.9452 201.64 54.3585 204.067 53.1852 206.28C52.0118 208.467 50.3852 210.2 48.3052 211.48C46.2518 212.76 43.9318 213.4 41.3452 213.4C38.7585 213.4 36.4252 212.76 34.3452 211.48C32.2918 210.2 30.6785 208.467 29.5052 206.28C28.3585 204.067 27.7852 201.64 27.7852 199C27.7852 196.36 28.3585 193.947 29.5052 191.76C30.6785 189.547 32.2918 187.8 34.3452 186.52C36.4252 185.24 38.7585 184.6 41.3452 184.6C43.9318 184.6 46.2518 185.24 48.3052 186.52C50.3852 187.8 52.0118 189.547 53.1852 191.76C54.3585 193.947 54.9452 196.36 54.9452 199ZM49.7452 199C49.7452 197.213 49.3852 195.6 48.6652 194.16C47.9452 192.693 46.9452 191.533 45.6652 190.68C44.3852 189.827 42.9452 189.4 41.3452 189.4C39.7185 189.4 38.2652 189.827 36.9852 190.68C35.7318 191.507 34.7452 192.653 34.0252 194.12C33.3318 195.587 32.9852 197.213 32.9852 199C32.9852 200.787 33.3318 202.413 34.0252 203.88C34.7452 205.347 35.7318 206.507 36.9852 207.36C38.2652 208.187 39.7185 208.6 41.3452 208.6C42.9452 208.6 44.3852 208.173 45.6652 207.32C46.9452 206.467 47.9452 205.32 48.6652 203.88C49.3852 202.413 49.7452 200.787 49.7452 199ZM74.6967 185C76.0567 185 77.3501 185.413 78.5767 186.24C79.8034 187.04 80.7901 188.133 81.5367 189.52C82.2834 190.88 82.6567 192.373 82.6567 194C82.6567 195.6 82.2834 197.093 81.5367 198.48C80.7901 199.867 79.8034 200.973 78.5767 201.8C77.3501 202.6 76.0567 203 74.6967 203H67.7367V210.56C67.7367 211.28 67.5234 211.867 67.0967 212.32C66.6701 212.773 66.1101 213 65.4167 213C64.7501 213 64.2034 212.773 63.7767 212.32C63.3501 211.84 63.1367 211.253 63.1367 210.56V187.44C63.1367 186.747 63.3634 186.173 63.8167 185.72C64.2967 185.24 64.8834 185 65.5767 185H74.6967ZM74.6967 198.44C75.2034 198.44 75.6967 198.227 76.1767 197.8C76.6834 197.373 77.0834 196.827 77.3767 196.16C77.6967 195.467 77.8567 194.747 77.8567 194C77.8567 193.253 77.6967 192.547 77.3767 191.88C77.0834 191.187 76.6834 190.64 76.1767 190.24C75.6967 189.813 75.2034 189.6 74.6967 189.6H67.7367V198.44H74.6967ZM102.398 185C103.758 185 105.052 185.413 106.278 186.24C107.505 187.04 108.492 188.133 109.238 189.52C109.985 190.88 110.358 192.373 110.358 194C110.358 195.6 109.985 197.093 109.238 198.48C108.492 199.867 107.505 200.973 106.278 201.8C105.052 202.6 103.758 203 102.398 203H95.4383V210.56C95.4383 211.28 95.225 211.867 94.7983 212.32C94.3716 212.773 93.8116 213 93.1183 213C92.4516 213 91.905 212.773 91.4783 212.32C91.0516 211.84 90.8383 211.253 90.8383 210.56V187.44C90.8383 186.747 91.065 186.173 91.5183 185.72C91.9983 185.24 92.585 185 93.2783 185H102.398ZM102.398 198.44C102.905 198.44 103.398 198.227 103.878 197.8C104.385 197.373 104.785 196.827 105.078 196.16C105.398 195.467 105.558 194.747 105.558 194C105.558 193.253 105.398 192.547 105.078 191.88C104.785 191.187 104.385 190.64 103.878 190.24C103.398 189.813 102.905 189.6 102.398 189.6H95.4383V198.44H102.398ZM138.898 209.88C139.032 210.227 139.098 210.547 139.098 210.84C139.098 211.533 138.872 212.107 138.418 212.56C137.965 212.987 137.445 213.2 136.858 213.2C136.378 213.2 135.938 213.053 135.538 212.76C135.165 212.467 134.872 212.067 134.658 211.56L132.578 206.72H120.658L118.578 211.6C118.392 212.107 118.098 212.507 117.698 212.8C117.325 213.067 116.912 213.2 116.458 213.2C115.765 213.2 115.232 213.013 114.858 212.64C114.512 212.267 114.338 211.76 114.338 211.12C114.338 210.88 114.378 210.627 114.458 210.36L124.418 186.44C124.632 185.907 124.952 185.493 125.378 185.2C125.805 184.907 126.285 184.787 126.818 184.84C127.298 184.84 127.738 184.987 128.138 185.28C128.565 185.547 128.872 185.933 129.058 186.44L138.898 209.88ZM130.618 202.12L126.578 192.76L122.618 202.12H130.618Z" fill="#4B4B4B"/>
</svg>
