<svg width="289" height="81" viewBox="0 0 289 81" fill="none" xmlns="http://www.w3.org/2000/svg">
<path d="M49.6052 78.8627C47.377 75.6225 40.7388 77.5932 37.6982 78.9837C34.1435 80.0825 35.4704 79.5837 32.4125 78.35C29.3547 77.1162 28.8034 77.6076 25.706 78.7847C22.6086 79.9619 18.0447 79.4767 16.6802 74.358C15.3157 69.2393 15.503 66.1028 17.7705 63.0919C20.0379 60.081 23.5618 60.5034 24.8911 53.9734C26.2205 47.4434 26.6865 46.6321 30.2499 44.6437C33.8133 42.6552 41.1563 42.049 44.3056 48.7443C47.4548 55.4397 49.4954 57.9761 55.4862 62.5345C61.477 67.0929 60.3578 71.8519 59.1533 76.291C57.9488 80.7301 52.3905 82.9129 49.6052 78.8627Z" fill="#4B4B4B"/>
<path d="M74.2789 37.0126C75.9663 42.3187 74.3009 49.465 73.2572 52.3749C70.5862 55.1516 69.2278 55.1746 66.1304 56.3517C63.033 57.5288 56.2808 55.2328 56.5077 49.6855C56.7345 44.1382 59.4451 38.9506 60.0755 33.6375C60.706 28.3244 66.3495 26.4615 67.7932 26.7584C70.7177 27.36 72.1698 30.38 74.2789 37.0126Z" fill="#4B4B4B"/>
<path d="M46.8359 1.88596C51.5544 5.39 50.94 8.32412 52.3044 13.4428C53.5384 20.3111 49.6853 24.092 46.5711 29.0454C43.457 33.9988 36.4885 28.3322 35.4423 23.1277C34.3961 17.9233 36.1457 7.85122 37.3503 3.41214C38.5548 -1.02693 43.3694 -0.688307 46.8359 1.88596Z" fill="#4B4B4B"/>
<path d="M14.9404 6.36196C18.9012 -0.533927 23.7895 5.00723 25.8301 7.54361C27.8707 10.08 27.5132 14.5093 25.8301 18.5215C24.147 22.5338 26.5536 26.8934 24.9455 31.0982C23.3374 35.3031 17.1136 31.1503 14.3908 26.0546C11.668 20.9589 10.9796 13.2579 14.9404 6.36196Z" fill="#4B4B4B"/>
<path d="M1.26258 34.391C2.7001 29.5462 8.60564 33.7847 11.8797 38.3891C15.4949 44.2732 14.7793 49.2663 12.9153 52.5115C11.0514 55.7566 7.23219 56.7853 3.00328 52.4381C-1.22563 48.0909 -0.174935 39.2357 1.26258 34.391Z" fill="#4B4B4B"/>
<path d="M120.694 59.15C121.56 59.15 122.277 59.4333 122.844 60C123.444 60.5333 123.744 61.2333 123.744 62.1C123.744 62.9333 123.444 63.6333 122.844 64.2C122.277 64.7333 121.56 65 120.694 65H104.444C103.577 65 102.844 64.7167 102.244 64.15C101.677 63.55 101.394 62.8167 101.394 61.95V33.05C101.394 32.1833 101.694 31.4667 102.294 30.9C102.894 30.3 103.66 30 104.594 30C105.427 30 106.144 30.3 106.744 30.9C107.344 31.4667 107.644 32.1833 107.644 33.05V59.15H120.694ZM165.681 47.5C165.681 50.8 164.948 53.8333 163.481 56.6C162.015 59.3333 159.981 61.5 157.381 63.1C154.815 64.7 151.915 65.5 148.681 65.5C145.448 65.5 142.531 64.7 139.931 63.1C137.365 61.5 135.348 59.3333 133.881 56.6C132.448 53.8333 131.731 50.8 131.731 47.5C131.731 44.2 132.448 41.1833 133.881 38.45C135.348 35.6833 137.365 33.5 139.931 31.9C142.531 30.3 145.448 29.5 148.681 29.5C151.915 29.5 154.815 30.3 157.381 31.9C159.981 33.5 162.015 35.6833 163.481 38.45C164.948 41.1833 165.681 44.2 165.681 47.5ZM159.181 47.5C159.181 45.2667 158.731 43.25 157.831 41.45C156.931 39.6167 155.681 38.1667 154.081 37.1C152.481 36.0333 150.681 35.5 148.681 35.5C146.648 35.5 144.831 36.0333 143.231 37.1C141.665 38.1333 140.431 39.5667 139.531 41.4C138.665 43.2333 138.231 45.2667 138.231 47.5C138.231 49.7333 138.665 51.7667 139.531 53.6C140.431 55.4333 141.665 56.8833 143.231 57.95C144.831 58.9833 146.648 59.5 148.681 59.5C150.681 59.5 152.481 58.9667 154.081 57.9C155.681 56.8333 156.931 55.4 157.831 53.6C158.731 51.7667 159.181 49.7333 159.181 47.5ZM190.371 30C192.071 30 193.688 30.5167 195.221 31.55C196.754 32.55 197.988 33.9167 198.921 35.65C199.854 37.35 200.321 39.2167 200.321 41.25C200.321 43.25 199.854 45.1167 198.921 46.85C197.988 48.5833 196.754 49.9667 195.221 51C193.688 52 192.071 52.5 190.371 52.5H181.671V61.95C181.671 62.85 181.404 63.5833 180.871 64.15C180.338 64.7167 179.638 65 178.771 65C177.938 65 177.254 64.7167 176.721 64.15C176.188 63.55 175.921 62.8167 175.921 61.95V33.05C175.921 32.1833 176.204 31.4667 176.771 30.9C177.371 30.3 178.104 30 178.971 30H190.371ZM190.371 46.8C191.004 46.8 191.621 46.5333 192.221 46C192.854 45.4667 193.354 44.7833 193.721 43.95C194.121 43.0833 194.321 42.1833 194.321 41.25C194.321 40.3167 194.121 39.4333 193.721 38.6C193.354 37.7333 192.854 37.05 192.221 36.55C191.621 36.0167 191.004 35.75 190.371 35.75H181.671V46.8H190.371ZM224.998 30C226.698 30 228.315 30.5167 229.848 31.55C231.381 32.55 232.615 33.9167 233.548 35.65C234.481 37.35 234.948 39.2167 234.948 41.25C234.948 43.25 234.481 45.1167 233.548 46.85C232.615 48.5833 231.381 49.9667 229.848 51C228.315 52 226.698 52.5 224.998 52.5H216.298V61.95C216.298 62.85 216.031 63.5833 215.498 64.15C214.965 64.7167 214.265 65 213.398 65C212.565 65 211.881 64.7167 211.348 64.15C210.815 63.55 210.548 62.8167 210.548 61.95V33.05C210.548 32.1833 210.831 31.4667 211.398 30.9C211.998 30.3 212.731 30 213.598 30H224.998ZM224.998 46.8C225.631 46.8 226.248 46.5333 226.848 46C227.481 45.4667 227.981 44.7833 228.348 43.95C228.748 43.0833 228.948 42.1833 228.948 41.25C228.948 40.3167 228.748 39.4333 228.348 38.6C227.981 37.7333 227.481 37.05 226.848 36.55C226.248 36.0167 225.631 35.75 224.998 35.75H216.298V46.8H224.998ZM270.623 61.1C270.79 61.5333 270.873 61.9333 270.873 62.3C270.873 63.1667 270.59 63.8833 270.023 64.45C269.456 64.9833 268.806 65.25 268.073 65.25C267.473 65.25 266.923 65.0667 266.423 64.7C265.956 64.3333 265.59 63.8333 265.323 63.2L262.723 57.15H247.823L245.223 63.25C244.99 63.8833 244.623 64.3833 244.123 64.75C243.656 65.0833 243.14 65.25 242.573 65.25C241.706 65.25 241.04 65.0167 240.573 64.55C240.14 64.0833 239.923 63.45 239.923 62.65C239.923 62.35 239.973 62.0333 240.073 61.7L252.523 31.8C252.79 31.1333 253.19 30.6167 253.723 30.25C254.256 29.8833 254.856 29.7333 255.523 29.8C256.123 29.8 256.673 29.9833 257.173 30.35C257.706 30.6833 258.09 31.1667 258.323 31.8L270.623 61.1ZM260.273 51.4L255.223 39.7L250.273 51.4H260.273Z" fill="#4B4B4B"/>
</svg>
